<svg id="Capa_1" data-name="Capa 1" xmlns="http://www.w3.org/2000/svg" viewBox="0 0 138.57 108.39"><defs><style>.cls-1{fill:#cc651f;}</style></defs><title>nature</title><g id="_6" data-name="6"><path class="cls-1" d="M70.13,15.09H67.91V35.21h2.21V15.09Zm53.75,22.55-1.57-1.57L108.05,50.29l1.57,1.57Zm-93.45,13L16.23,36.39l-1.57,1.56L28.85,52.23Zm90.46,19.1,9-4.41-1-2-9,4.41ZM48.62,39.54l-4.4-9-2,1,4.4,9ZM18.56,68.46L9.12,65.19,8.4,67.28l9.44,3.26ZM95.09,30.64L93,29.91l-3.29,9.42,2.09,0.73Zm20.72,59.65a46.8,46.8,0,0,0-93.58,0H0V92.5H138.57V90.29H115.81Zm-91.36,0a44.59,44.59,0,0,1,89.15,0H24.45Zm-9,17.7H123.1v-2.21H15.45V108Zm14.19,15.49h79.19v-2.21H29.64v2.21Z" transform="translate(0 -15.09)"/></g></svg>